<mxfile host="app.diagrams.net" modified="2023-10-21T03:44:21.301Z" agent="Mozilla/5.0 (Windows NT 10.0; Win64; x64) AppleWebKit/537.36 (KHTML, like Gecko) Chrome/118.0.0.0 Safari/537.36 Edg/118.0.2088.57" etag="c0vAqRyRPrwzN93nRw3_" version="22.0.6" type="google">
  <diagram name="Trang-1" id="UHCx6XLSGMOV8hAmfwqr">
    <mxGraphModel grid="1" page="1" gridSize="10" guides="1" tooltips="1" connect="1" arrows="1" fold="1" pageScale="1" pageWidth="827" pageHeight="1169" math="0" shadow="0">
      <root>
        <mxCell id="0" />
        <mxCell id="1" parent="0" />
        <mxCell id="EHbiqqJH9KmU8e1EN2bH-1" value="Students&lt;br&gt;" style="shape=umlActor;verticalLabelPosition=bottom;verticalAlign=top;html=1;fontStyle=1;labelBackgroundColor=none;fillColor=#FAE5C7;strokeColor=#0F8B8D;fontColor=#143642;rounded=1;" vertex="1" parent="1">
          <mxGeometry x="-90" y="656" width="30" height="60" as="geometry" />
        </mxCell>
        <mxCell id="EHbiqqJH9KmU8e1EN2bH-24" value="" style="rounded=1;whiteSpace=wrap;html=1;labelBackgroundColor=none;" vertex="1" parent="1">
          <mxGeometry x="20" y="530" width="850" height="290" as="geometry" />
        </mxCell>
        <mxCell id="EHbiqqJH9KmU8e1EN2bH-6" value="Buy Printing Pages" style="ellipse;whiteSpace=wrap;html=1;labelBackgroundColor=none;fillColor=#FAE5C7;strokeColor=#0F8B8D;fontColor=#143642;rounded=1;" vertex="1" parent="1">
          <mxGeometry x="241" y="630" width="119" height="52" as="geometry" />
        </mxCell>
        <mxCell id="EHbiqqJH9KmU8e1EN2bH-9" value="&amp;lt;&amp;lt;extend&amp;gt;&amp;gt;" style="html=1;verticalAlign=bottom;endArrow=open;dashed=1;endSize=8;curved=0;rounded=1;entryX=0.94;entryY=0.32;entryDx=0;entryDy=0;exitX=0;exitY=0.5;exitDx=0;exitDy=0;entryPerimeter=0;labelBackgroundColor=none;strokeColor=#A8201A;fontColor=default;" edge="1" parent="1" source="EHbiqqJH9KmU8e1EN2bH-6" target="Umk0Imst4LeeHNY4dyAj-7">
          <mxGeometry x="0.323" y="-7" relative="1" as="geometry">
            <mxPoint x="350" y="614.0040000000001" as="sourcePoint" />
            <mxPoint x="292.77951928676566" y="667.7059772316882" as="targetPoint" />
            <mxPoint as="offset" />
          </mxGeometry>
        </mxCell>
        <mxCell id="EHbiqqJH9KmU8e1EN2bH-10" value="Select number of pages to buy" style="ellipse;whiteSpace=wrap;html=1;labelBackgroundColor=none;fillColor=#FAE5C7;strokeColor=#0F8B8D;fontColor=#143642;rounded=1;" vertex="1" parent="1">
          <mxGeometry x="470.5" y="590" width="119" height="52" as="geometry" />
        </mxCell>
        <mxCell id="EHbiqqJH9KmU8e1EN2bH-11" value="Select payment method" style="ellipse;whiteSpace=wrap;html=1;labelBackgroundColor=none;fillColor=#FAE5C7;strokeColor=#0F8B8D;fontColor=#143642;rounded=1;" vertex="1" parent="1">
          <mxGeometry x="470.5" y="669" width="119" height="52" as="geometry" />
        </mxCell>
        <mxCell id="EHbiqqJH9KmU8e1EN2bH-20" value="&amp;lt;&amp;lt;include&amp;gt;&amp;gt;&lt;br&gt;" style="html=1;verticalAlign=bottom;endArrow=open;dashed=1;endSize=8;curved=0;rounded=1;exitX=1;exitY=0.5;exitDx=0;exitDy=0;entryX=-0.005;entryY=0.577;entryDx=0;entryDy=0;entryPerimeter=0;labelBackgroundColor=none;strokeColor=#A8201A;fontColor=default;" edge="1" parent="1" source="EHbiqqJH9KmU8e1EN2bH-6" target="EHbiqqJH9KmU8e1EN2bH-10">
          <mxGeometry x="-0.397" y="9" relative="1" as="geometry">
            <mxPoint x="500" y="700" as="sourcePoint" />
            <mxPoint x="510" y="690" as="targetPoint" />
            <mxPoint as="offset" />
          </mxGeometry>
        </mxCell>
        <mxCell id="EHbiqqJH9KmU8e1EN2bH-21" value="&amp;lt;&amp;lt;include&amp;gt;&amp;gt;&lt;br&gt;" style="html=1;verticalAlign=bottom;endArrow=open;dashed=1;endSize=8;curved=0;rounded=1;exitX=0.956;exitY=0.719;exitDx=0;exitDy=0;entryX=0;entryY=0.5;entryDx=0;entryDy=0;exitPerimeter=0;labelBackgroundColor=none;strokeColor=#A8201A;fontColor=default;" edge="1" parent="1" source="EHbiqqJH9KmU8e1EN2bH-6" target="EHbiqqJH9KmU8e1EN2bH-11">
          <mxGeometry x="-0.1527" y="-16" relative="1" as="geometry">
            <mxPoint x="439" y="696" as="sourcePoint" />
            <mxPoint x="499" y="668" as="targetPoint" />
            <mxPoint as="offset" />
          </mxGeometry>
        </mxCell>
        <mxCell id="EHbiqqJH9KmU8e1EN2bH-27" value="Payment&lt;br&gt;" style="ellipse;whiteSpace=wrap;html=1;labelBackgroundColor=none;fillColor=#FAE5C7;strokeColor=#0F8B8D;fontColor=#143642;rounded=1;" vertex="1" parent="1">
          <mxGeometry x="690" y="630" width="119" height="52" as="geometry" />
        </mxCell>
        <mxCell id="EHbiqqJH9KmU8e1EN2bH-33" value="View payment logs" style="ellipse;whiteSpace=wrap;html=1;labelBackgroundColor=none;fillColor=#FAE5C7;strokeColor=#0F8B8D;fontColor=#143642;rounded=1;" vertex="1" parent="1">
          <mxGeometry x="241" y="712" width="119" height="52" as="geometry" />
        </mxCell>
        <mxCell id="EHbiqqJH9KmU8e1EN2bH-37" value="&amp;lt;&amp;lt;extend&amp;gt;&amp;gt;&lt;br&gt;" style="html=1;verticalAlign=bottom;endArrow=open;dashed=1;endSize=8;curved=0;rounded=1;exitX=0.016;exitY=0.578;exitDx=0;exitDy=0;exitPerimeter=0;entryX=0.94;entryY=0.71;entryDx=0;entryDy=0;entryPerimeter=0;labelBackgroundColor=none;strokeColor=#A8201A;fontColor=default;" edge="1" parent="1" source="EHbiqqJH9KmU8e1EN2bH-33" target="Umk0Imst4LeeHNY4dyAj-7">
          <mxGeometry x="0.0314" y="21" relative="1" as="geometry">
            <mxPoint x="350.00000000000045" y="780" as="sourcePoint" />
            <mxPoint x="283.71406826849443" y="707.5720237207747" as="targetPoint" />
            <mxPoint as="offset" />
          </mxGeometry>
        </mxCell>
        <mxCell id="Umk0Imst4LeeHNY4dyAj-5" value="Online Payment Providers" style="shape=umlActor;verticalLabelPosition=bottom;verticalAlign=top;html=1;direction=east;fontStyle=1;labelBackgroundColor=none;fillColor=#FAE5C7;strokeColor=#0F8B8D;fontColor=#143642;rounded=1;" vertex="1" parent="1">
          <mxGeometry x="734.5" y="880" width="30" height="60" as="geometry" />
        </mxCell>
        <mxCell id="Umk0Imst4LeeHNY4dyAj-7" value="View Page Balance" style="ellipse;whiteSpace=wrap;html=1;labelBackgroundColor=none;fillColor=#FAE5C7;strokeColor=#0F8B8D;fontColor=#143642;rounded=1;" vertex="1" parent="1">
          <mxGeometry x="30" y="660" width="119" height="52" as="geometry" />
        </mxCell>
        <mxCell id="Umk0Imst4LeeHNY4dyAj-9" value="" style="endArrow=none;html=1;rounded=1;entryX=0.48;entryY=0.988;entryDx=0;entryDy=0;entryPerimeter=0;exitX=0.477;exitY=-0.029;exitDx=0;exitDy=0;exitPerimeter=0;labelBackgroundColor=none;strokeColor=#A8201A;fontColor=default;" edge="1" parent="1" source="Umk0Imst4LeeHNY4dyAj-5" target="EHbiqqJH9KmU8e1EN2bH-27">
          <mxGeometry width="50" height="50" relative="1" as="geometry">
            <mxPoint x="660" y="890" as="sourcePoint" />
            <mxPoint x="859" y="850" as="targetPoint" />
          </mxGeometry>
        </mxCell>
        <mxCell id="Umk0Imst4LeeHNY4dyAj-10" value="" style="endArrow=none;html=1;rounded=1;exitX=0;exitY=0.5;exitDx=0;exitDy=0;entryX=0.5;entryY=0.5;entryDx=0;entryDy=0;entryPerimeter=0;labelBackgroundColor=none;strokeColor=#A8201A;fontColor=default;" edge="1" parent="1" source="Umk0Imst4LeeHNY4dyAj-7" target="EHbiqqJH9KmU8e1EN2bH-1">
          <mxGeometry width="50" height="50" relative="1" as="geometry">
            <mxPoint x="-60" y="550" as="sourcePoint" />
            <mxPoint x="-10" y="500" as="targetPoint" />
          </mxGeometry>
        </mxCell>
        <mxCell id="rID7TrebFi1pXae11UYS-1" value="Select timeline" style="ellipse;whiteSpace=wrap;html=1;labelBackgroundColor=none;fillColor=#FAE5C7;strokeColor=#0F8B8D;fontColor=#143642;rounded=1;" vertex="1" parent="1">
          <mxGeometry x="430" y="730" width="119" height="52" as="geometry" />
        </mxCell>
        <mxCell id="rID7TrebFi1pXae11UYS-2" value="&amp;lt;&amp;lt;include&amp;gt;&amp;gt;&lt;br&gt;" style="html=1;verticalAlign=bottom;endArrow=open;dashed=1;endSize=8;curved=0;rounded=1;exitX=1.017;exitY=0.49;exitDx=0;exitDy=0;entryX=-0.007;entryY=0.436;entryDx=0;entryDy=0;exitPerimeter=0;entryPerimeter=0;labelBackgroundColor=none;strokeColor=#A8201A;fontColor=default;" edge="1" parent="1" source="EHbiqqJH9KmU8e1EN2bH-33" target="rID7TrebFi1pXae11UYS-1">
          <mxGeometry x="-0.1527" y="-16" relative="1" as="geometry">
            <mxPoint x="365" y="677" as="sourcePoint" />
            <mxPoint x="480" y="705" as="targetPoint" />
            <mxPoint as="offset" />
          </mxGeometry>
        </mxCell>
        <mxCell id="rID7TrebFi1pXae11UYS-3" value="&amp;lt;&amp;lt;include&amp;gt;&amp;gt;&lt;br&gt;" style="html=1;verticalAlign=bottom;endArrow=open;dashed=1;endSize=8;curved=0;rounded=1;exitX=1;exitY=0.59;exitDx=0;exitDy=0;entryX=0.089;entryY=0.735;entryDx=0;entryDy=0;exitPerimeter=0;entryPerimeter=0;labelBackgroundColor=none;strokeColor=#A8201A;fontColor=default;" edge="1" parent="1" source="EHbiqqJH9KmU8e1EN2bH-11" target="EHbiqqJH9KmU8e1EN2bH-27">
          <mxGeometry x="-0.1527" y="-16" relative="1" as="geometry">
            <mxPoint x="610" y="702" as="sourcePoint" />
            <mxPoint x="726" y="730" as="targetPoint" />
            <mxPoint as="offset" />
          </mxGeometry>
        </mxCell>
        <mxCell id="rID7TrebFi1pXae11UYS-4" value="&amp;lt;&amp;lt;include&amp;gt;&amp;gt;&lt;br&gt;" style="html=1;verticalAlign=bottom;endArrow=open;dashed=1;endSize=8;curved=0;rounded=1;exitX=0.991;exitY=0.57;exitDx=0;exitDy=0;entryX=0.021;entryY=0.37;entryDx=0;entryDy=0;exitPerimeter=0;entryPerimeter=0;labelBackgroundColor=none;strokeColor=#A8201A;fontColor=default;" edge="1" parent="1" source="EHbiqqJH9KmU8e1EN2bH-10" target="EHbiqqJH9KmU8e1EN2bH-27">
          <mxGeometry x="-0.1527" y="-16" relative="1" as="geometry">
            <mxPoint x="600" y="710" as="sourcePoint" />
            <mxPoint x="711" y="678" as="targetPoint" />
            <mxPoint as="offset" />
          </mxGeometry>
        </mxCell>
      </root>
    </mxGraphModel>
  </diagram>
</mxfile>
